name rise49.8558peak67.6521fall70.3087.mot
datacolumns 19
datarows 14
range 18.01326200000000 18.03492700000000
endheader
time	ground_force1_vx	ground_force1_vy	ground_force1_vz	ground_force1_px	ground_force1_py	ground_force1_pz	ground_force2_vx	ground_force2_vy	ground_force2_vz	ground_force2_px	ground_force2_py	ground_force2_pz	ground_torque1_x	ground_torque1_y	ground_torque1_z	ground_torque2_x	ground_torque2_y	ground_torque2_z	
18.01326200000000	-42.95798700000000	816.85918200000003	68.57628500000000	0.16716400000000	0.00000000000000	0.11182900000000	-1.90316200000000	10.72918800000000	1.32402700000000	0.00000000000000	0.00000000000000	0.00000000000000	0.00000000000000	32.41342600000000	0.00000000000000	0.00000000000000	0.54125600000000	0.00000000000000	
18.01492800000000	-43.09227900000000	815.69617700000003	68.69619200000000	0.16649100000000	0.00000000000000	0.11179600000000	-2.56475700000000	15.37597200000000	1.79670700000000	0.00000000000000	0.00000000000000	0.00000000000000	0.00000000000000	32.33449600000000	0.00000000000000	0.00000000000000	0.73382200000000	0.00000000000000	
18.01660200000000	-43.22682200000000	814.37908100000004	68.78981600000000	0.16581200000000	0.00000000000000	0.11176100000000	-3.26845300000000	20.61205000000000	2.30365900000000	0.00000000000000	0.00000000000000	0.00000000000000	0.00000000000000	32.24697600000000	0.00000000000000	0.00000000000000	0.94041300000000	0.00000000000000	
18.01826800000000	-43.36215300000000	812.90664400000003	68.85613100000000	0.16512500000000	0.00000000000000	0.11172400000000	-3.99042500000000	26.34288600000000	2.82896800000000	0.40423700000000	0.00000000000000	-0.08778200000000	0.00000000000000	32.15086300000000	0.00000000000000	0.00000000000000	1.94793000000000	0.00000000000000	
18.01992800000000	-43.49879900000000	811.27781600000003	68.89415300000000	0.16443200000000	0.00000000000000	0.11168500000000	-4.70506500000000	32.45675800000000	3.35540700000000	0.40762000000000	0.00000000000000	-0.08835600000000	0.00000000000000	32.04617300000000	0.00000000000000	0.00000000000000	2.32163400000000	0.00000000000000	
18.02160300000000	-43.63727600000000	809.49174000000005	68.90294000000000	0.16373300000000	0.00000000000000	0.11164300000000	-5.38686100000000	38.83438300000000	3.86573000000000	0.41058500000000	0.00000000000000	-0.08887200000000	0.00000000000000	31.93293900000000	0.00000000000000	0.00000000000000	2.68696400000000	0.00000000000000	
18.02327000000000	-43.77808600000000	807.54775099999995	68.88160000000001	0.16302700000000	0.00000000000000	0.11159900000000	-6.01219900000000	45.35881800000000	4.34392200000000	0.41321300000000	0.00000000000000	-0.08934100000000	0.00000000000000	31.81121600000000	0.00000000000000	0.00000000000000	3.03277200000000	0.00000000000000	
18.02493300000000	-43.92171200000000	805.44537100000002	68.82928900000000	0.16231700000000	0.00000000000000	0.11155100000000	-6.56087300000000	51.92432200000000	4.77624900000000	0.41556700000000	0.00000000000000	-0.08976800000000	0.00000000000000	31.68107800000000	0.00000000000000	0.00000000000000	3.34949500000000	0.00000000000000	
18.02659600000000	-44.06862000000000	803.18429700000002	68.74521700000000	0.16160100000000	0.00000000000000	0.11150100000000	-7.01713500000000	58.44324100000000	5.15199900000000	0.41769700000000	0.00000000000000	-0.09015900000000	0.00000000000000	31.54261500000000	0.00000000000000	0.00000000000000	3.62968500000000	0.00000000000000	
18.02826600000000	-44.21925400000000	800.76440100000002	68.62865100000000	0.16088000000000	0.00000000000000	0.11144800000000	-7.37024800000000	64.85041699999999	5.46387800000000	0.41964300000000	0.00000000000000	-0.09052000000000	0.00000000000000	31.39593900000000	0.00000000000000	0.00000000000000	3.86829700000000	0.00000000000000	
18.02993600000000	-44.37403300000000	798.18571899999995	68.47891799999999	0.16015600000000	0.00000000000000	0.11139100000000	-7.61454000000000	71.10506900000000	5.70806500000000	0.42143900000000	0.00000000000000	-0.09085400000000	0.00000000000000	31.24117400000000	0.00000000000000	0.00000000000000	4.06273500000000	0.00000000000000	
18.03159500000000	-44.53335100000000	795.44844799999998	68.29540700000000	0.15942900000000	0.00000000000000	0.11133100000000	-7.74904300000000	77.19035599999999	5.88397400000000	0.42310900000000	0.00000000000000	-0.09116400000000	0.00000000000000	31.07846600000000	0.00000000000000	0.00000000000000	4.21269400000000	0.00000000000000	
18.03326200000000	-44.69757200000000	792.55293099999994	68.07756900000000	0.15869900000000	0.00000000000000	0.11126800000000	-7.77680500000000	83.11104400000001	5.99379400000000	0.42467700000000	0.00000000000000	-0.09145200000000	0.00000000000000	30.90797400000000	0.00000000000000	0.00000000000000	4.31983600000000	0.00000000000000	
18.03492700000000	-44.86702900000000	789.49965599999996	67.82492499999999	0.15796700000000	0.00000000000000	0.11120000000000	-7.70399500000000	88.88979999999999	6.04187800000000	0.42615800000000	0.00000000000000	-0.09172300000000	0.00000000000000	30.72987000000000	0.00000000000000	0.00000000000000	4.38736400000000	0.00000000000000	
